<?xml version="1.0" encoding="UTF-8" standalone="no" ?>
<!DOCTYPE svg PUBLIC "-//W3C//DTD SVG 1.1//EN" "http://www.w3.org/Graphics/SVG/1.1/DTD/svg11.dtd">
<svg xmlns="http://www.w3.org/2000/svg" xmlns:xlink="http://www.w3.org/1999/xlink" version="1.1" width="2695" height="298.11738365991073" viewBox="-649.6893900963826 246.53690859731648 2695 298.11738365991073" xml:space="preserve">
<desc>Created with Fabric.js 4.6.0</desc>
<defs>
</defs>
<g transform="matrix(31.13 0 0 3.44 697.81 395.6)" id="moFaNoZkVRZmTXk2fRAih"  >
<path style="stroke: rgb(39,171,245); stroke-width: 0; stroke-dasharray: none; stroke-linecap: butt; stroke-dashoffset: 0; stroke-linejoin: miter; stroke-miterlimit: 4; fill: rgb(247,47,58); fill-rule: nonzero; opacity: 1;" vector-effect="non-scaling-stroke"  transform=" translate(0, 0)" d="M -43.29101 -15.74078 C -43.29101 -30.95635 -41.92657 -43.29101 -40.24344 -43.29101 L 40.24343 -43.29101 L 40.24343 -43.29101 C 41.926559999999995 -43.29101 43.291 -30.95635 43.291 -15.74078 L 43.291 15.74078 L 43.291 15.74078 C 43.291 30.95635 41.926559999999995 43.29101 40.24343 43.29101 L -40.24344 43.29101 L -40.24344 43.29101 C -41.92657 43.29101 -43.29101 30.95635 -43.29101 15.74078 z" stroke-linecap="round" />
</g>
<g transform="matrix(1 0 0 1 730.31 395.6)" style="" id="tsHsbM7D3EtSJBlZqbOfQ"  >
		<text xml:space="preserve" font-family="Archivo Black" font-size="157" font-style="italic" font-weight="700" letter-spacing="0.314" line-height="1" style="stroke: none; stroke-width: 1; stroke-dasharray: none; stroke-linecap: butt; stroke-dashoffset: 0; stroke-linejoin: miter; stroke-miterlimit: 4; fill: rgb(255,255,255); fill-rule: nonzero; opacity: 1; white-space: pre;" ><tspan x="-1314.5" y="51.02" >A</tspan><tspan x="-1192.04" y="51.02" >F</tspan><tspan x="-1087.01" y="51.02" >T</tspan><tspan x="-973.34" y="51.02" >E</tspan><tspan x="-859.67" y="51.02" >R</tspan><tspan x="-737.21" y="51.02" style="white-space: pre; "> </tspan><tspan x="-684.62" y="51.02" >H</tspan><tspan x="-553.52" y="51.02" >O</tspan><tspan x="-422.43" y="51.02" >U</tspan><tspan x="-291.33" y="51.02" >R</tspan><tspan x="-168.87" y="51.02" >S</tspan><tspan x="-55.2" y="51.02" style="white-space: pre; "> </tspan><tspan x="-2.61" y="51.02" >N</tspan><tspan x="128.49" y="51.02" >O</tspan><tspan x="255.5" y="51.02" >T</tspan><tspan x="369.17" y="51.02" >I</tspan><tspan x="430.56" y="51.02" >F</tspan><tspan x="535.59" y="51.02" >I</tspan><tspan x="596.98" y="51.02" >C</tspan><tspan x="719.44" y="51.02" >A</tspan><tspan x="831.06" y="51.02" >T</tspan><tspan x="944.73" y="51.02" >I</tspan><tspan x="1006.12" y="51.02" >O</tspan><tspan x="1137.21" y="51.02" >N</tspan></text>
</g>
</svg>